#tb 0: 1/25
0,          0,          0,        1,   599040, 0x4b489a60
0,          1,          1,        1,   599040, 0x80369c9a
0,          2,          2,        1,   599040, 0x33189b1a
0,          3,          3,        1,   599040, 0x01d73abb
0,          4,          4,        1,   599040, 0xd5de0ab7
0,          5,          5,        1,   599040, 0xf7b9f1c3
0,          6,          6,        1,   599040, 0xe72b6446
0,          7,          7,        1,   599040, 0xf78cc5d6
0,          8,          8,        1,   599040, 0x9c6d33a2
0,          9,          9,        1,   599040, 0xacb6cb08
0,         10,         10,        1,   599040, 0x2a215019
0,         11,         11,        1,   599040, 0xcd89d5be
0,         12,         12,        1,   599040, 0x60403ebb
0,         13,         13,        1,   599040, 0xc5c62e88
0,         14,         14,        1,   599040, 0x93403d23
0,         15,         15,        1,   599040, 0x6b86071d
0,         16,         16,        1,   599040, 0xfaaad32f
0,         17,         17,        1,   599040, 0x68651db5
0,         18,         18,        1,   599040, 0xfbedeba6
0,         19,         19,        1,   599040, 0x7fa3a0c0
0,         20,         20,        1,   599040, 0x76b34545
0,         21,         21,        1,   599040, 0x34e4c1cd
0,         22,         22,        1,   599040, 0xfad3eda9
0,         23,         23,        1,   599040, 0xf4324901
0,         24,         24,        1,   599040, 0x991b4fde
0,         25,         25,        1,   599040, 0xd9d7823d
0,         26,         26,        1,   599040, 0xd8a80ca5
0,         27,         27,        1,   599040, 0x19ae0251
0,         28,         28,        1,   599040, 0xfa68cda7
0,         29,         29,        1,   599040, 0xb9c72f07
0,         30,         30,        1,   599040, 0xf1df5f78
0,         31,         31,        1,   599040, 0xda75192b
0,         32,         32,        1,   599040, 0x1102b6e6
0,         33,         33,        1,   599040, 0x259ec490
0,         34,         34,        1,   599040, 0xee1dabe5
0,         35,         35,        1,   599040, 0xf6bf5454
0,         36,         36,        1,   599040, 0x058061be
0,         37,         37,        1,   599040, 0x2f9aebeb
0,         38,         38,        1,   599040, 0x169c0bff
0,         39,         39,        1,   599040, 0xeffb5a9f
0,         40,         40,        1,   599040, 0xb3bbebac
0,         41,         41,        1,   599040, 0x174af746
0,         42,         42,        1,   599040, 0x8359db57
0,         43,         43,        1,   599040, 0xdd7693ad
0,         44,         44,        1,   599040, 0x05aebad4
0,         45,         45,        1,   599040, 0xc34fd8bc
0,         46,         46,        1,   599040, 0x2798f32e
0,         47,         47,        1,   599040, 0x319b9b8c
0,         48,         48,        1,   599040, 0xa28d783f
0,         49,         49,        1,   599040, 0x5c79026f
0,         50,         50,        1,   599040, 0xd4ae9b08
0,         51,         51,        1,   599040, 0x79b19064
0,         52,         52,        1,   599040, 0xe773bd75
0,         53,         53,        1,   599040, 0xfbeda52a
0,         54,         54,        1,   599040, 0x2ed916e6
0,         55,         55,        1,   599040, 0xd3243fe7
0,         56,         56,        1,   599040, 0xfdbc20e8
0,         57,         57,        1,   599040, 0x80983226
0,         58,         58,        1,   599040, 0x51c66b23
0,         59,         59,        1,   599040, 0x30816b80
